<svg xmlns="http://www.w3.org/2000/svg" viewBox="0 0 24 24"><defs><style>.cls-1{isolation:isolate;}.cls-2{opacity:0.2;mix-blend-mode:difference;}.cls-3{fill:#D6D3DF;}</style></defs><title>react-24</title><g class="cls-1"><g id="Camada_1" data-name="Camada 1"><g class="cls-2"><path class="cls-3" d="M23,11.81c0-.08,0-.16,0-.25a2.67,2.67,0,0,0-.73-1.29,5.82,5.82,0,0,0-1.55-1.11,11.87,11.87,0,0,0-2.18-.85c-.08,0-.1-.06-.08-.13a14.72,14.72,0,0,0,.33-1.8.23.23,0,0,1,0-.13h0V6.09a.89.89,0,0,1,0-.15.6.6,0,0,1,0,.15c0-.07,0-.14,0-.21h0V5.12c0-.06,0-.13,0-.18a.51.51,0,0,1,0,.14.64.64,0,0,1,0-.14V4.82s0-.09,0-.13a.27.27,0,0,1,0,.1.29.29,0,0,1,0-.1c0-.14-.05-.29-.08-.43A3,3,0,0,0,18,2.88a2.15,2.15,0,0,0-1.45-.72h-.38a4,4,0,0,0-.93.2,8.05,8.05,0,0,0-2.51,1.52c-.25.21-.48.43-.72.65-.05,0-.08,0-.13,0l-.24-.22A10.76,10.76,0,0,0,9.9,2.93a5,5,0,0,0-2.1-.77H7.42a2.08,2.08,0,0,0-1.66,1,3.5,3.5,0,0,0-.51,1.55.29.29,0,0,1,0,.1.27.27,0,0,1,0-.1s0,.09,0,.13h0v.12a.64.64,0,0,1,0,.14.51.51,0,0,1,0-.14c0,.06,0,.12,0,.18h0v.76c0,.07,0,.14,0,.21a.6.6,0,0,1,0-.15.91.91,0,0,1,0,.15v.17a.23.23,0,0,1,0,.13c0,.24,0,.49.09.73s.12.69.22,1c0,.09,0,.14-.09.17A10.81,10.81,0,0,0,2.9,9.39a4.72,4.72,0,0,0-1.36,1.14A2.4,2.4,0,0,0,1,11.81v.35a2,2,0,0,0,.3,1,3.62,3.62,0,0,0,.91,1A6.5,6.5,0,0,0,3.56,15a11.83,11.83,0,0,0,1.95.72s.08,0,.06.09a2.52,2.52,0,0,0-.08.32,13.11,13.11,0,0,0-.24,1.51.3.3,0,0,1,0,.1.34.34,0,0,1,0-.1s0,.09,0,.13h0v.14a1.13,1.13,0,0,1,0,.17.64.64,0,0,1,0-.17c0,.07,0,.16,0,.23h0v.76c0,.06,0,.13,0,.19a.51.51,0,0,1,0-.14.64.64,0,0,1,0,.14v.12s0,.09,0,.13a.29.29,0,0,1,0-.1.3.3,0,0,1,0,.1.76.76,0,0,0,0,.15,5.25,5.25,0,0,0,.29,1,2.61,2.61,0,0,0,.59.85,2,2,0,0,0,1.11.52h.1a.26.26,0,0,1-.1,0s.09,0,.13,0h.49s.09,0,.13,0a.27.27,0,0,1-.1,0H8l.45-.1a6.77,6.77,0,0,0,2.19-1.15,14.63,14.63,0,0,0,1.27-1.08c.05,0,.09-.06.15,0s.28.26.42.39.46.4.7.58a8.82,8.82,0,0,0,1.2.8,4.68,4.68,0,0,0,1.62.57h.1a.27.27,0,0,1-.1,0s.09,0,.13,0h.49s.09,0,.13,0a.26.26,0,0,1-.1,0h.1a2.18,2.18,0,0,0,.6-.18,2.35,2.35,0,0,0,1.13-1.3,5.24,5.24,0,0,0,.25-1,.3.3,0,0,1,0-.1.29.29,0,0,1,0,.1s0-.09,0-.13h0v-.12a.86.86,0,0,1,0-.15.54.54,0,0,1,0,.15c0-.07,0-.14,0-.21h0v-.74c0-.08,0-.16,0-.23a.64.64,0,0,1,0,.17,1.14,1.14,0,0,1,0-.17v-.14s0-.09,0-.13h0a.34.34,0,0,1,0,.1.3.3,0,0,1,0-.1c0-.09,0-.18,0-.27a13.73,13.73,0,0,0-.29-1.53c0-.07,0-.11.08-.13a11.81,11.81,0,0,0,2.22-.87,5.57,5.57,0,0,0,1.63-1.22A2.54,2.54,0,0,0,23,12.16ZM12.71,5.22a9.14,9.14,0,0,1,2.64-1.88,2.69,2.69,0,0,1,1-.24,1.22,1.22,0,0,1,1.18.71A3.06,3.06,0,0,1,17.84,5c0,.18,0,.36,0,.48A11.37,11.37,0,0,1,17.52,8c0,.07,0,.09-.11.07a22.13,22.13,0,0,0-2.8-.44.15.15,0,0,1-.12-.07,21.68,21.68,0,0,0-1.78-2.2S12.66,5.26,12.71,5.22Zm-5.29,8,0-.08c.41.78.83,1.52,1.31,2.27-.35,0-.69-.09-1-.15l-.89-.17c-.08,0-.12,0-.09-.14C7,14.34,7.19,13.76,7.42,13.19Zm0-2.49c-.22-.54-.43-1.09-.6-1.65,0-.06,0-.1.05-.11.63-.13,1.27-.25,1.94-.33-.47.74-.9,1.49-1.31,2.28ZM8,12.08a.17.17,0,0,1,0-.16A27.09,27.09,0,0,1,9.93,8.57a.17.17,0,0,1,.14-.08,27.21,27.21,0,0,1,3,0l.82,0a.14.14,0,0,1,.12.07A27.09,27.09,0,0,1,16,11.93a.14.14,0,0,1,0,.14,26.92,26.92,0,0,1-1.95,3.37.17.17,0,0,1-.15.07c-.56,0-1.12.06-1.56.06-.84,0-1.56,0-2.27-.06a.17.17,0,0,1-.14-.08A27.06,27.06,0,0,1,8,12.08Zm8.54,1c.13.32.24.61.35.9s.21.62.32.92c0,.08,0,.12-.07.13-.63.13-1.26.24-1.92.32C15.7,14.64,16.13,13.89,16.54,13.1Zm0-2.2c-.41-.78-.84-1.53-1.32-2.29l1.06.17.86.17c.08,0,.1,0,.07.12C17,9.68,16.8,10.27,16.54,10.89ZM11.92,6C12,6,12,6,12.08,6c.42.47.82.95,1.22,1.48-.88,0-1.73,0-2.61,0L11,7.14C11.28,6.76,11.6,6.39,11.92,6ZM6.31,4.18a2.19,2.19,0,0,1,.16-.38,1.27,1.27,0,0,1,1.36-.69,4.1,4.1,0,0,1,1.57.61,11.06,11.06,0,0,1,1.88,1.49c.06.06,0,.09,0,.14A21.56,21.56,0,0,0,9.53,7.5a.2.2,0,0,1-.16.1A20.76,20.76,0,0,0,6.65,8c-.13,0-.17,0-.2-.12a12.13,12.13,0,0,1-.32-2.38A4.54,4.54,0,0,1,6.31,4.18ZM5.88,14.71c0,.06,0,.09-.11.07a9.55,9.55,0,0,1-2.82-1.27,3,3,0,0,1-.76-.75A1.37,1.37,0,0,1,1.92,12,1.5,1.5,0,0,1,2.33,11a4,4,0,0,1,1-.82,10.64,10.64,0,0,1,2.41-1c.07,0,.09,0,.12.06a22.19,22.19,0,0,0,1,2.65.15.15,0,0,1,0,.14A22.52,22.52,0,0,0,5.88,14.71Zm5.42,4.07a8.93,8.93,0,0,1-2.72,1.92,2.33,2.33,0,0,1-1.15.2,1.18,1.18,0,0,1-.91-.6,2.61,2.61,0,0,1-.33-1,5.31,5.31,0,0,1,0-.93A11.57,11.57,0,0,1,6.48,16c0-.08,0-.09.12-.07a22.42,22.42,0,0,0,2.79.44.15.15,0,0,1,.12.07,21.92,21.92,0,0,0,1.78,2.21S11.34,18.74,11.3,18.77Zm.77-.79c0,.05-.08.06-.13,0-.42-.46-.82-.94-1.2-1.44l0-.06c.86,0,1.71,0,2.55,0,0,0,0,.06,0,.07Q12.68,17.3,12.06,18Zm5.6,1.91a2,2,0,0,1-.18.39,1.22,1.22,0,0,1-1.26.61,3.76,3.76,0,0,1-1.59-.59,10.91,10.91,0,0,1-1.92-1.51s-.06-.07,0-.13a21.88,21.88,0,0,0,1.77-2.19.16.16,0,0,1,.13-.08A22.65,22.65,0,0,0,17.39,16c.07,0,.11,0,.13.07a11.82,11.82,0,0,1,.34,2.41A4.45,4.45,0,0,1,17.67,19.89Zm4-6.9a4.75,4.75,0,0,1-1.46,1,11.7,11.7,0,0,1-1.92.74c-.09,0-.12,0-.14-.08a21.74,21.74,0,0,0-1-2.59.23.23,0,0,1,0-.21,22,22,0,0,0,1-2.59c0-.06,0-.11.12-.08a10.87,10.87,0,0,1,2.33,1,3.82,3.82,0,0,1,1.19,1,1.41,1.41,0,0,1,.31.87A1.51,1.51,0,0,1,21.64,13Z"/><path class="cls-3" d="M12,14a2,2,0,1,0-2-2A2,2,0,0,0,12,14Z"/></g></g></g></svg>
